<?xml version="1.0" encoding="UTF-8"?>
<svg version="1.1" xmlns="http://www.w3.org/2000/svg" width="513" height="486">
<path d="M0 0 C0.73347656 0.17901855 1.46695312 0.35803711 2.22265625 0.54248047 C21.21975799 5.23731095 38.99340865 12.35298619 56 22 C57.06476563 22.58523437 58.12953125 23.17046875 59.2265625 23.7734375 C67.23841076 28.2761385 74.65308927 33.49979315 82 39 C83.31871094 39.97646484 83.31871094 39.97646484 84.6640625 40.97265625 C99.06925155 52.18908054 112.18559431 65.59535922 122 81 C123.01608729 82.54352191 124.03307102 84.08645393 125.05078125 85.62890625 C130.80317071 94.43758205 136.10687605 103.19588748 140 113 C140.3412793 113.84127441 140.68255859 114.68254883 141.03417969 115.54931641 C145.30813212 126.16496892 149.24864722 136.801107 151.9375 147.9375 C152.12449463 148.70320312 152.31148926 149.46890625 152.50415039 150.2578125 C155.79382008 164.92086655 156.37904098 179.72147225 156.3125 194.6875 C156.31034485 195.56396179 156.3081897 196.44042358 156.30596924 197.34344482 C156.25319873 210.74440935 155.85856245 223.85745643 153 237 C152.81727539 237.85480957 152.63455078 238.70961914 152.44628906 239.59033203 C147.92983144 259.81798091 140.33677013 280.67384977 129.14990234 298.19189453 C127.75725295 300.38169526 126.40552176 302.59514823 125.05078125 304.80859375 C123.99381596 306.51923642 122.93522677 308.22887682 121.875 309.9375 C121.38394775 310.7315625 120.89289551 311.525625 120.38696289 312.34375 C117.3437993 317.16468397 114.19699109 322.08884526 110 326 C109.34 326 108.68 326 108 326 C107.75507813 326.55042969 107.51015625 327.10085938 107.2578125 327.66796875 C103.37227111 334.8719073 97.36221415 341.00647398 91.09765625 346.1875 C88.59051188 348.35382214 86.31250176 350.68997911 84 353.0625 C79.90014025 357.1934193 75.74810874 360.65995109 71 364 C70.08734375 364.6909375 69.1746875 365.381875 68.234375 366.09375 C53.52997648 377.12262283 37.0614583 387.13204009 20 394 C19.11183594 394.36544922 18.22367187 394.73089844 17.30859375 395.10742188 C-46.81275117 421.3537706 -116.18727528 420.52525346 -180.0625 393.9375 C-186.94257171 391.0101802 -193.57687821 387.84421424 -200 384 C-201.03253906 383.38382812 -202.06507813 382.76765625 -203.12890625 382.1328125 C-220.51682767 371.58099242 -236.36406429 360.08899605 -251 346 C-251.58458984 345.4426416 -252.16917969 344.8852832 -252.77148438 344.31103516 C-261.02784348 336.40947635 -268.36883735 328.31792683 -275 319 C-275.68255859 318.05205566 -275.68255859 318.05205566 -276.37890625 317.08496094 C-282.62291898 308.37822111 -288.15402569 299.57432789 -293 290 C-293.57234375 288.95070313 -294.1446875 287.90140625 -294.734375 286.8203125 C-311.72280322 254.87304703 -318.15843981 212.28648463 -309 177 C-308.76893555 176.08637695 -308.53787109 175.17275391 -308.29980469 174.23144531 C-304.03786346 157.73585644 -298.62987485 141.71318627 -289.4140625 127.2734375 C-287.87987748 124.80687485 -286.57543201 122.2717222 -285.25 119.6875 C-282.22075412 114.0651562 -278.44788717 109.16036665 -274.4921875 104.1796875 C-272.2911677 101.40550281 -270.26429838 98.53838435 -268.25 95.625 C-255.22075373 77.62475616 -237.92833806 62.88599298 -220 50 C-219.071875 49.32066406 -218.14375 48.64132813 -217.1875 47.94140625 C-212.00796013 44.2144617 -206.63724453 40.95749341 -201.09375 37.80078125 C-198.06155977 36.03583214 -195.13404018 34.15362003 -192.1875 32.25 C-137.00988602 -1.72571458 -63.04873622 -15.83095449 0 0 Z " fill="#FBEAD9" transform="translate(339,42)"/>
<path d="M0 0 C11.91090051 9.9700162 22.40213413 26.45001424 24.46484375 42.09375 C25.63285762 56.26743481 24.10057071 68.68325416 19.46484375 82.09375 C20.24214844 82.20847656 21.01945313 82.32320313 21.8203125 82.44140625 C24.46484375 83.09375 24.46484375 83.09375 26.77734375 85.53125 C29.35039326 90.96324342 29.3625199 96.40072156 27.46484375 102.09375 C26.80484375 102.09375 26.14484375 102.09375 25.46484375 102.09375 C25.15546875 103.82625 25.15546875 103.82625 24.83984375 105.59375 C23.61861225 110.54947202 21.02375954 114.45746648 17.46484375 118.09375 C16.80484375 118.09375 16.14484375 118.09375 15.46484375 118.09375 C15.46484375 118.75375 15.46484375 119.41375 15.46484375 120.09375 C11.99984375 121.08375 11.99984375 121.08375 8.46484375 122.09375 C8.50609375 123.145625 8.54734375 124.1975 8.58984375 125.28125 C8.46744308 129.01447042 7.87264826 130.73066145 6.46484375 134.09375 C5.92855326 136.61844063 5.4662558 139.14806765 5.02734375 141.69140625 C4.46831781 144.07891288 3.64940756 145.95659947 2.46484375 148.09375 C1.80484375 148.09375 1.14484375 148.09375 0.46484375 148.09375 C0.12453125 149.1765625 0.12453125 149.1765625 -0.22265625 150.28125 C-1.78785233 153.63524161 -3.83208341 155.59860584 -6.53515625 158.09375 C-8.50137297 160.05996672 -7.74631549 163.84293512 -7.7734375 166.53125 C-7.78554512 167.66240234 -7.78554512 167.66240234 -7.79789734 168.81640625 C-7.81176219 170.42038665 -7.82247355 172.02439685 -7.83032227 173.62841797 C-7.84739264 176.05625755 -7.89123548 178.48268383 -7.93554688 180.91015625 C-8.01778279 189.20622694 -7.86150257 195.76565083 -3.53515625 203.09375 C-3.20515625 204.08375 -2.87515625 205.07375 -2.53515625 206.09375 C-0.11132548 207.26328416 -0.11132548 207.26328416 2.46484375 208.09375 C3.12484375 208.42375 3.78484375 208.75375 4.46484375 209.09375 C4.46484375 209.75375 4.46484375 210.41375 4.46484375 211.09375 C6.07359375 211.4959375 6.07359375 211.4959375 7.71484375 211.90625 C11.20660995 213.01197596 12.64797724 213.96263751 15.46484375 216.09375 C17.15032752 216.95264668 18.86128309 217.76272084 20.58984375 218.53125 C22.05744141 219.18480469 22.05744141 219.18480469 23.5546875 219.8515625 C26.07092613 220.92560798 28.59745924 221.92925525 31.15234375 222.90625 C37.79088629 225.51537607 44.08650266 228.8301405 50.43652344 232.06347656 C53.56319049 233.6516488 56.70146316 235.21638731 59.83984375 236.78125 C63.01561654 238.36551934 66.1888838 239.95240466 69.34765625 241.5703125 C73.65483348 243.76890147 77.79800992 245.74282442 82.46484375 247.09375 C82.46484375 247.75375 82.46484375 248.41375 82.46484375 249.09375 C83.31046875 249.3 84.15609375 249.50625 85.02734375 249.71875 C88.73842541 251.20318266 90.93627075 252.97998946 93.8515625 255.63671875 C95.54167858 257.21764937 95.54167858 257.21764937 97.90234375 258.84375 C98.41796875 259.25625 98.93359375 259.66875 99.46484375 260.09375 C99.46484375 260.75375 99.46484375 261.41375 99.46484375 262.09375 C100.45484375 262.42375 101.44484375 262.75375 102.46484375 263.09375 C102.46484375 264.08375 102.46484375 265.07375 102.46484375 266.09375 C103.12484375 266.09375 103.78484375 266.09375 104.46484375 266.09375 C105.39808839 267.44177003 106.32009558 268.79864389 107.19140625 270.1875 C108.67938794 272.41490817 110.33944844 274.45164903 112.02734375 276.53125 C114.93634635 280.24146094 116.7436995 283.67864085 118.46484375 288.09375 C119.47611471 290.07781966 120.49791989 292.05653789 121.52734375 294.03125 C124.31526919 299.57936034 126.70041214 304.56022421 126.27734375 310.90625 C125.36374729 313.36593277 124.37438027 314.3311009 122.46484375 316.09375 C122.06394531 316.81691406 121.66304688 317.54007812 121.25 318.28515625 C118.99149647 321.83846924 116.26892636 324.5892351 113.27734375 327.53125 C112.69073975 328.11108643 112.10413574 328.69092285 111.49975586 329.28833008 C107.38742925 333.3030549 103.1986943 336.83227249 98.46484375 340.09375 C97.55605469 340.78082031 96.64726562 341.46789062 95.7109375 342.17578125 C81.00930101 353.21459171 64.52931449 363.22457746 47.46484375 370.09375 C46.57667969 370.45919922 45.68851562 370.82464844 44.7734375 371.20117188 C-19.34790742 397.4475206 -88.72243153 396.61900346 -152.59765625 370.03125 C-159.47772796 367.1039302 -166.11203446 363.93796424 -172.53515625 360.09375 C-173.56769531 359.47757812 -174.60023438 358.86140625 -175.6640625 358.2265625 C-192.44144441 348.04524692 -207.92491935 337.02867527 -222.08984375 323.45849609 C-223.41049467 322.21146254 -224.76805787 321.00382041 -226.12890625 319.80078125 C-231.31094077 315.08403504 -231.31094077 315.08403504 -232.28515625 310.78125 C-230.31765344 301.10769452 -225.97362601 292.84118073 -221.2421875 284.28125 C-219.47690706 281.20084582 -219.47690706 281.20084582 -218.53515625 278.09375 C-217.87515625 277.76375 -217.21515625 277.43375 -216.53515625 277.09375 C-215.87458198 275.84103934 -215.25714884 274.56547825 -214.66015625 273.28125 C-208.43186531 261.82629385 -197.32582174 253.91426498 -186.53515625 247.09375 C-185.86742187 246.66449219 -185.1996875 246.23523438 -184.51171875 245.79296875 C-180.70808001 243.48042782 -176.69595903 241.95942904 -172.5625 240.3671875 C-165.31188864 237.31725291 -158.17556091 233.68260733 -151.30859375 229.8515625 C-149.53515625 229.09375 -149.53515625 229.09375 -145.53515625 229.09375 C-145.53515625 228.43375 -145.53515625 227.77375 -145.53515625 227.09375 C-144.77561646 226.76334717 -144.77561646 226.76334717 -144.00073242 226.42626953 C-134.23548368 222.15760815 -124.56269237 217.74726679 -115.09765625 212.84375 C-114.31221436 212.44430176 -113.52677246 212.04485352 -112.7175293 211.63330078 C-107.15693326 208.70488579 -101.72487393 205.29795011 -99.53515625 199.09375 C-98.36856216 192.12751674 -98.24344426 185.21103047 -98.18505859 178.16845703 C-98.16841468 176.69824487 -98.14101462 175.22811634 -98.10302734 173.75830078 C-98.04817356 171.61709521 -98.02638978 169.47775128 -98.01171875 167.3359375 C-97.99189941 166.0660498 -97.97208008 164.79616211 -97.95166016 163.48779297 C-98.68929578 159.19716096 -100.33521828 157.93440091 -103.53515625 155.09375 C-104.78955078 152.98486328 -104.78955078 152.98486328 -105.66796875 150.9140625 C-105.99925781 150.14964844 -106.33054687 149.38523438 -106.671875 148.59765625 C-106.99800781 147.81261719 -107.32414062 147.02757812 -107.66015625 146.21875 C-107.99402344 145.44144531 -108.32789063 144.66414062 -108.671875 143.86328125 C-109.32780337 142.33278173 -109.97699794 140.79937594 -110.61889648 139.26293945 C-111.20785609 137.86861329 -111.81291032 136.48091799 -112.43774414 135.10229492 C-114.34383247 130.88259422 -114.81933872 127.73539704 -114.53515625 123.09375 C-115.29828125 122.825625 -116.06140625 122.5575 -116.84765625 122.28125 C-119.42504243 121.14240495 -120.80470489 120.27958329 -122.53515625 118.09375 C-122.53515625 117.43375 -122.53515625 116.77375 -122.53515625 116.09375 C-123.19515625 116.09375 -123.85515625 116.09375 -124.53515625 116.09375 C-124.53515625 115.43375 -124.53515625 114.77375 -124.53515625 114.09375 C-125.19515625 114.09375 -125.85515625 114.09375 -126.53515625 114.09375 C-135.40041998 98.39861472 -135.40041998 98.39861472 -133.53515625 90.09375 C-132.50866717 87.1925677 -131.47014094 85.60400041 -129.53515625 83.09375 C-126.890625 81.90625 -126.890625 81.90625 -124.53515625 81.09375 C-124.89609375 80.07539063 -125.25703125 79.05703125 -125.62890625 78.0078125 C-132.15851464 58.54223136 -130.85249387 39.92552677 -121.99975586 21.2890625 C-118.30577313 14.0709922 -113.37970683 8.63599624 -107.53515625 3.09375 C-106.78234375 2.34609375 -106.02953125 1.5984375 -105.25390625 0.828125 C-76.41629158 -26.54671211 -30.15579422 -22.67492694 0 0 Z " fill="#DACDC4" transform="translate(311.53515625,65.90625)"/>
<path d="M0 0 C11.91090051 9.9700162 22.40213413 26.45001424 24.46484375 42.09375 C25.63285762 56.26743481 24.10057071 68.68325416 19.46484375 82.09375 C20.24214844 82.20847656 21.01945313 82.32320313 21.8203125 82.44140625 C24.46484375 83.09375 24.46484375 83.09375 26.77734375 85.53125 C29.35039326 90.96324342 29.3625199 96.40072156 27.46484375 102.09375 C26.80484375 102.09375 26.14484375 102.09375 25.46484375 102.09375 C25.25859375 103.24875 25.05234375 104.40375 24.83984375 105.59375 C23.61861225 110.54947202 21.02375954 114.45746648 17.46484375 118.09375 C16.80484375 118.09375 16.14484375 118.09375 15.46484375 118.09375 C15.46484375 118.75375 15.46484375 119.41375 15.46484375 120.09375 C11.99984375 121.08375 11.99984375 121.08375 8.46484375 122.09375 C8.50609375 123.145625 8.54734375 124.1975 8.58984375 125.28125 C8.46744308 129.01447042 7.87264826 130.73066145 6.46484375 134.09375 C5.92855326 136.61844063 5.4662558 139.14806765 5.02734375 141.69140625 C4.46831781 144.07891288 3.64940756 145.95659947 2.46484375 148.09375 C1.80484375 148.09375 1.14484375 148.09375 0.46484375 148.09375 C0.12453125 149.1765625 0.12453125 149.1765625 -0.22265625 150.28125 C-1.78785233 153.63524161 -3.83208341 155.59860584 -6.53515625 158.09375 C-8.50879295 160.0673867 -7.72274643 163.90222122 -7.73828125 166.6015625 C-7.74398132 167.36040741 -7.7496814 168.11925232 -7.7555542 168.90109253 C-7.76502263 170.51347453 -7.77154546 172.12587604 -7.77539062 173.73828125 C-7.78503461 176.18785353 -7.81601316 178.6365646 -7.84765625 181.0859375 C-7.85419244 182.65364086 -7.85944049 184.22135022 -7.86328125 185.7890625 C-7.87562805 186.51537872 -7.88797485 187.24169495 -7.9006958 187.99002075 C-7.87874322 193.08824997 -6.73405572 196.49908772 -4.53515625 201.09375 C-4.37015625 202.021875 -4.20515625 202.95 -4.03515625 203.90625 C-3.71243028 206.472117 -3.71243028 206.472117 -0.53515625 208.09375 C-0.53515625 208.75375 -0.53515625 209.41375 -0.53515625 210.09375 C0.45484375 210.09375 1.44484375 210.09375 2.46484375 210.09375 C2.93468646 220.61822677 -1.13955317 229.9215905 -7.53515625 238.09375 C-7.67050781 238.74214844 -7.80585938 239.39054687 -7.9453125 240.05859375 C-8.73403402 242.77994417 -10.05285655 243.74168187 -12.22265625 245.53125 C-13.30933594 246.43230469 -13.30933594 246.43230469 -14.41796875 247.3515625 C-15.11664063 247.92648437 -15.8153125 248.50140625 -16.53515625 249.09375 C-17.33566406 249.83238281 -17.33566406 249.83238281 -18.15234375 250.5859375 C-21.7321759 253.85616254 -24.88532365 254.93129185 -29.53515625 256.09375 C-31.54296802 257.07797146 -33.54408377 258.07609073 -35.53515625 259.09375 C-39.36587329 260.41194131 -43.2828337 260.24554611 -47.28515625 260.21875 C-48.36204712 260.21367432 -48.36204712 260.21367432 -49.46069336 260.20849609 C-56.95697839 260.13524527 -63.32362663 259.17164837 -70.53515625 257.09375 C-73.34659916 256.57711733 -76.16108851 256.1035033 -78.984375 255.65625 C-81.4540663 255.11163201 -83.34005213 254.32753218 -85.53515625 253.09375 C-85.53515625 252.43375 -85.53515625 251.77375 -85.53515625 251.09375 C-86.19515625 251.09375 -86.85515625 251.09375 -87.53515625 251.09375 C-88.55484101 250.11383011 -89.55212233 249.110433 -90.53515625 248.09375 C-91.7081176 247.26039884 -92.89608024 246.44778495 -94.09765625 245.65625 C-96.86599965 243.73120449 -98.28016088 242.28828367 -99.53515625 239.09375 C-100.19515625 238.76375 -100.85515625 238.43375 -101.53515625 238.09375 C-101.53515625 236.44375 -101.53515625 234.79375 -101.53515625 233.09375 C-102.19515625 233.09375 -102.85515625 233.09375 -103.53515625 233.09375 C-106.56911329 226.21678071 -107.67038263 218.55083338 -106.53515625 211.09375 C-105.24057417 208.687819 -103.82317467 206.72065063 -102.04296875 204.65234375 C-97.42932508 196.82349244 -98.13276771 186.77180864 -98.10961914 177.94213867 C-98.09757718 175.76696678 -98.04811883 173.59451031 -97.99804688 171.41992188 C-97.98859497 170.02345112 -97.98135405 168.62696327 -97.9765625 167.23046875 C-97.96310791 165.97967529 -97.94965332 164.72888184 -97.93579102 163.44018555 C-98.69579778 159.19684023 -100.37025867 157.91369962 -103.53515625 155.09375 C-104.78955078 152.98486328 -104.78955078 152.98486328 -105.66796875 150.9140625 C-105.99925781 150.14964844 -106.33054688 149.38523438 -106.671875 148.59765625 C-107.16107422 147.42009766 -107.16107422 147.42009766 -107.66015625 146.21875 C-107.99402344 145.44144531 -108.32789063 144.66414062 -108.671875 143.86328125 C-109.32780337 142.33278173 -109.97699794 140.79937594 -110.61889648 139.26293945 C-111.20785609 137.86861329 -111.81291032 136.48091799 -112.43774414 135.10229492 C-114.34383247 130.88259422 -114.81933872 127.73539704 -114.53515625 123.09375 C-115.67984375 122.6915625 -115.67984375 122.6915625 -116.84765625 122.28125 C-119.42504243 121.14240495 -120.80470489 120.27958329 -122.53515625 118.09375 C-122.53515625 117.43375 -122.53515625 116.77375 -122.53515625 116.09375 C-123.19515625 116.09375 -123.85515625 116.09375 -124.53515625 116.09375 C-124.53515625 115.43375 -124.53515625 114.77375 -124.53515625 114.09375 C-125.19515625 114.09375 -125.85515625 114.09375 -126.53515625 114.09375 C-135.40041998 98.39861472 -135.40041998 98.39861472 -133.53515625 90.09375 C-132.50866717 87.1925677 -131.47014094 85.60400041 -129.53515625 83.09375 C-126.890625 81.90625 -126.890625 81.90625 -124.53515625 81.09375 C-124.89609375 80.07539063 -125.25703125 79.05703125 -125.62890625 78.0078125 C-132.15851464 58.54223136 -130.85249387 39.92552677 -121.99975586 21.2890625 C-118.30577313 14.0709922 -113.37970683 8.63599624 -107.53515625 3.09375 C-106.78234375 2.34609375 -106.02953125 1.5984375 -105.25390625 0.828125 C-76.41629158 -26.54671211 -30.15579422 -22.67492694 0 0 Z " fill="#FBC8B0" transform="translate(311.53515625,65.90625)"/>
<path d="M0 0 C11.89366102 9.9555859 22.43119372 26.46006543 24.46484375 42.09375 C25.75603796 59.67192455 23.80741195 73.83422193 14.46484375 89.09375 C13.47484375 89.09375 12.48484375 89.09375 11.46484375 89.09375 C11.26890625 88.4853125 11.07296875 87.876875 10.87109375 87.25 C8.82418074 81.25042738 6.3175023 75.70468231 3.40234375 70.09375 C-1.1046794 61.3371302 -3.60847497 52.91657155 -4.53515625 43.09375 C-4.89867187 43.61324219 -5.2621875 44.13273437 -5.63671875 44.66796875 C-13.94397018 56.19161753 -23.49162762 59.94446187 -37.15942383 62.46972656 C-44.2693081 63.60902408 -51.44567652 63.50187502 -58.62744141 63.42993164 C-61.19204264 63.40595185 -63.75562463 63.40944699 -66.3203125 63.41601562 C-67.96745408 63.41044873 -69.61459135 63.40334512 -71.26171875 63.39453125 C-72.02006012 63.39544266 -72.77840149 63.39635406 -73.5597229 63.39729309 C-77.69053607 63.34199083 -80.79478212 62.82497834 -84.53515625 61.09375 C-86.42234375 60.7225 -86.42234375 60.7225 -88.34765625 60.34375 C-93.58558895 59.11891022 -97.76721823 55.86168802 -101.53515625 52.09375 C-101.69628906 52.78855469 -101.85742188 53.48335938 -102.0234375 54.19921875 C-104.90210944 64.96354178 -110.12715038 74.31704257 -115.4753418 84.03173828 C-116.65389141 86.19593046 -116.65389141 86.19593046 -117.53515625 89.09375 C-118.19515625 89.09375 -118.85515625 89.09375 -119.53515625 89.09375 C-129.25275216 73.22167667 -131.72629434 57.19779428 -128.53515625 39.03125 C-124.92236692 24.59681855 -118.2599609 13.26382337 -107.53515625 3.09375 C-106.78234375 2.34609375 -106.02953125 1.5984375 -105.25390625 0.828125 C-76.41629158 -26.54671211 -30.15579422 -22.67492694 0 0 Z " fill="#363743" transform="translate(311.53515625,65.90625)"/>
<path d="M0 0 C0.01458252 0.96301025 0.02916504 1.92602051 0.04418945 2.91821289 C0.10249923 6.51737168 0.17972739 10.11592605 0.26245117 13.71459961 C0.29554777 15.26723362 0.32362651 16.81998353 0.34643555 18.37280273 C0.38026524 20.6149194 0.43258987 22.85598847 0.48828125 25.09765625 C0.49467117 25.78336197 0.5010611 26.46906769 0.50764465 27.17555237 C0.65801905 32.19069709 1.90184017 35.54709052 4 40 C4.165 40.928125 4.33 41.85625 4.5 42.8125 C4.82272597 45.378367 4.82272597 45.378367 8 47 C8 47.66 8 48.32 8 49 C8.99 49 9.98 49 11 49 C11.46984271 59.52447677 7.39560308 68.8278405 1 77 C0.86464844 77.64839844 0.72929687 78.29679687 0.58984375 78.96484375 C-0.19887777 81.68619417 -1.5177003 82.64793187 -3.6875 84.4375 C-4.41195312 85.03820312 -5.13640625 85.63890625 -5.8828125 86.2578125 C-6.93082031 87.12019531 -6.93082031 87.12019531 -8 88 C-8.53367187 88.49242187 -9.06734375 88.98484375 -9.6171875 89.4921875 C-13.19701965 92.76241254 -16.3501674 93.83754185 -21 95 C-23.00781177 95.98422146 -25.00892752 96.98234073 -27 98 C-30.83071704 99.31819131 -34.74767745 99.15179611 -38.75 99.125 C-39.46792725 99.12161621 -40.18585449 99.11823242 -40.92553711 99.11474609 C-48.42182214 99.04149527 -54.78847038 98.07789837 -62 96 C-64.81144291 95.48336733 -67.62593226 95.0097533 -70.44921875 94.5625 C-72.91891005 94.01788201 -74.80489588 93.23378218 -77 92 C-77 91.34 -77 90.68 -77 90 C-77.66 90 -78.32 90 -79 90 C-80.01968476 89.02008011 -81.01696608 88.016683 -82 87 C-83.17296135 86.16664884 -84.36092399 85.35403495 -85.5625 84.5625 C-88.3308434 82.63745449 -89.74500463 81.19453367 -91 78 C-91.66 77.67 -92.32 77.34 -93 77 C-93 75.35 -93 73.7 -93 72 C-93.66 72 -94.32 72 -95 72 C-98.03740296 65.11521995 -99.12288436 57.46510159 -98 50 C-96.74685749 47.53337139 -95.34659781 45.50852421 -93.60546875 43.36328125 C-87.98451142 35.08912265 -88.45898094 26.10240514 -88.3125 16.5 C-88.27927717 14.99476282 -88.24478303 13.48955313 -88.20898438 11.984375 C-88.12464864 8.32311808 -88.05757327 4.66178694 -88 1 C-87.01 1 -86.02 1 -85 1 C-84.195625 2.010625 -83.39125 3.02125 -82.5625 4.0625 C-75.53170487 12.73205188 -64.69909911 16.5314962 -54 18 C-53.67 18.33 -53.34 18.66 -53 19 C-36.08549017 20.0615073 -21.50219585 17.93710538 -8.1953125 6.61328125 C-6.42339035 5.01453563 -4.66783282 3.39735833 -2.93359375 1.7578125 C-1 0 -1 0 0 0 Z " fill="#F1A78D" transform="translate(303,227)"/>
<path d="M0 0 C0.33 12.87 0.66 25.74 1 39 C-4.58445205 40.39611301 -8.07341403 41.25402328 -13.51171875 41.265625 C-15.26645508 41.26949219 -15.26645508 41.26949219 -17.05664062 41.2734375 C-18.25482422 41.26570313 -19.45300781 41.25796875 -20.6875 41.25 C-22.50217773 41.26160156 -22.50217773 41.26160156 -24.35351562 41.2734375 C-26.10245117 41.26957031 -26.10245117 41.26957031 -27.88671875 41.265625 C-28.94076904 41.26336914 -29.99481934 41.26111328 -31.08081055 41.25878906 C-34.09916417 40.991209 -36.25489388 40.24232164 -39 39 C-40.49662466 38.5915901 -41.99680477 38.1960207 -43.5 37.8125 C-50.16363419 35.87984477 -56.01062313 32.42652438 -62 29 C-62 28.34 -62 27.68 -62 27 C-62.61875 26.9175 -63.2375 26.835 -63.875 26.75 C-66.66938743 25.76374561 -66.716952 24.56609601 -68 22 C-68.86238281 21.85304687 -68.86238281 21.85304687 -69.7421875 21.703125 C-73.1574912 20.63953561 -74.76330843 18.38663477 -77.125 15.75 C-77.99382812 14.79609375 -78.86265625 13.8421875 -79.7578125 12.859375 C-81.81176996 10.24004249 -82.97999336 8.14024517 -84 5 C-80.71233354 6.5439742 -77.77314345 8.42926899 -74.75 10.4375 C-67.94046845 14.79306473 -62.09525845 17.00874386 -54 18 C-53.67 18.33 -53.34 18.66 -53 19 C-36.08549017 20.0615073 -21.50219585 17.93710538 -8.1953125 6.61328125 C-6.42339035 5.01453563 -4.66783282 3.39735833 -2.93359375 1.7578125 C-1 0 -1 0 0 0 Z " fill="#EA786C" transform="translate(303,227)"/>
<path d="M0 0 C0 0.33 0 0.66 0 1 C-1.97991813 0.9112556 -3.9589673 0.80308438 -5.9375 0.6875 C-7.03964844 0.62949219 -8.14179688 0.57148437 -9.27734375 0.51171875 C-12.24495627 0.1037888 -14.37696469 -0.41382332 -17.13671875 -1.41015625 C-22.92935352 -3.44200611 -28.80967434 -4.28853296 -34.875 -5.125 C-36.10702148 -5.29604248 -37.33904297 -5.46708496 -38.60839844 -5.64331055 C-49.13955886 -6.98619703 -59.64142829 -7.53149451 -70.25 -7.8125 C-71.03227966 -7.83387024 -71.81455933 -7.85524048 -72.62054443 -7.8772583 C-79.31024775 -8.06148631 -79.31024775 -8.06148631 -86 -8 C-86.33 -7.67 -86.66 -7.34 -87 -7 C-88.54028692 -6.80809786 -90.0881421 -6.67623979 -91.63671875 -6.5703125 C-93.08195923 -6.4628772 -93.08195923 -6.4628772 -94.55639648 -6.35327148 C-95.58966064 -6.27794189 -96.6229248 -6.2026123 -97.6875 -6.125 C-105.71682233 -5.49203423 -113.34449198 -4.54424892 -121.1796875 -2.65625 C-123.65773065 -2.07964162 -126.03572654 -1.69856884 -128.5625 -1.4375 C-131.89377374 -1.16989276 -131.89377374 -1.16989276 -134.375 0 C-138.45016905 1.55244535 -142.67485432 1.68086304 -147 2 C-108.58503839 -23.60997441 -40.79001479 -11.89099595 0 0 Z " fill="#FEF8EE" transform="translate(357,47)"/>
<path d="M0 0 C0.66 0 1.32 0 2 0 C2.02505615 1.04341553 2.0501123 2.08683105 2.07592773 3.16186523 C2.17081372 7.07017196 2.27082881 10.97833415 2.37231445 14.88647461 C2.41535886 16.57101028 2.45705223 18.25558108 2.49731445 19.94018555 C2.55576429 22.37559554 2.61923423 24.81083358 2.68359375 27.24609375 C2.70030624 27.98709824 2.71701874 28.72810272 2.73423767 29.49156189 C2.86081455 34.06127169 3.25265645 38.51786854 3.89002991 43.04603577 C4 45 4 45 3 48 C0.56640625 49.16796875 0.56640625 49.16796875 -2.4375 50.1875 C-3.42621094 50.53167969 -4.41492188 50.87585938 -5.43359375 51.23046875 C-8 52 -8 52 -10 52 C-8.4785113 40.09658839 -8.4785113 40.09658839 -6.5 35.5625 C-4.53834262 30.90356373 -4.10153301 26.35699384 -3.46875 21.36328125 C-3.10187365 18.73094341 -2.64436385 16.3019864 -1.9375 13.75 C-0.79583226 9.18332905 -0.36469911 4.68350433 0 0 Z " fill="#C1B4AF" transform="translate(380,376)"/>
<path d="M0 0 C2.10658744 3.15988116 2.55093193 5.04520011 3.21875 8.734375 C3.42886719 9.86617188 3.63898438 10.99796875 3.85546875 12.1640625 C4.06816406 13.34742188 4.28085938 14.53078125 4.5 15.75 C5.74923893 22.60945739 7.06605555 29.29731217 9 36 C9.46761285 38.63581774 9.80682775 41.27997935 10.125 43.9375 C10.21136719 44.62134766 10.29773438 45.30519531 10.38671875 46.00976562 C10.59602285 47.67257046 10.79871722 49.33620513 11 51 C5.67329402 51.20859828 3.16166994 50.48418879 -1 47 C-2.2646262 43.51080766 -1.75839336 40.60646259 -1.29345703 36.96533203 C-0.61947105 30.15482144 -0.61104598 23.27662837 -0.4375 16.4375 C-0.39422355 14.84048545 -0.35060663 13.24348009 -0.30664062 11.64648438 C-0.20049931 7.76441777 -0.09897381 3.88225568 0 0 Z " fill="#C1B4B0" transform="translate(137,377)"/>
<path d="M0 0 C0.66 0 1.32 0 2 0 C2.63844864 2.47631293 3.26042707 4.95523557 3.875 7.4375 C4.04902344 8.10587891 4.22304688 8.77425781 4.40234375 9.46289062 C7.9520375 23.99034097 8.37864387 38.8107877 8.3125 53.6875 C8.31034485 54.56396179 8.3081897 55.44042358 8.30596924 56.34344482 C8.21683286 78.97944884 6.14155884 101.96129281 -3 123 C-3.66 123 -4.32 123 -5 123 C-4.86464844 122.47019531 -4.72929687 121.94039063 -4.58984375 121.39453125 C-3.87689323 118.50023542 -3.22178122 115.59448613 -2.5625 112.6875 C-1.50289761 108.07874396 -0.3346065 103.53766209 1 99 C5.64739512 82.15319267 6.05474766 64.80989945 6.125 47.4375 C6.12967285 46.63425293 6.1343457 45.83100586 6.13916016 45.00341797 C6.12999309 41.74346671 6.03807209 39.11421626 5 36 C3.93771399 28.35416363 3.87898341 20.70472266 4 13 C3.34 13 2.68 13 2 13 C1.34 8.71 0.68 4.42 0 0 Z " fill="#FEF8EF" transform="translate(487,183)"/>
<path d="M0 0 C0.66 0.33 1.32 0.66 2 1 C2 1.66 2 2.32 2 3 C2.78375 3.309375 3.5675 3.61875 4.375 3.9375 C7 5 7 5 9 6 C9 6.66 9 7.32 9 8 C9.99 8.33 10.98 8.66 12 9 C11.690625 9.886875 11.38125 10.77375 11.0625 11.6875 C9.976365 14.82235023 9.976365 14.82235023 9.5625 17.4375 C7.26946946 27.883528 -0.22663243 38.00123194 -7 46 C-9.12890625 47.1953125 -9.12890625 47.1953125 -11 48 C-11.61875 48.66 -12.2375 49.32 -12.875 50 C-15.46790989 52.44038578 -17.59948217 52.9998477 -21 54 C-22.23502599 54.52817069 -23.46423144 55.0701419 -24.6875 55.625 C-28 57 -28 57 -31 57 C-31 56.34 -31 55.68 -31 55 C-27.19327204 52.96315335 -23.7297702 51.16941094 -19.5 50.1875 C-13.65710741 48.20509002 -9.39401976 44.09102964 -6 39 C-5.34 39 -4.68 39 -4 39 C-3.9175 38.29875 -3.835 37.5975 -3.75 36.875 C-3 34 -3 34 -1.125 31.25 C1.07472134 27.88572031 2.17470371 24.90341019 3.34375 21.09765625 C4 19 4 19 5.125 16.375 C6.26021401 13.29370482 6.61751145 10.25115265 7 7 C6.01 7 5.02 7 4 7 C1.8125 5.1875 1.8125 5.1875 0 3 C0 2.01 0 1.02 0 0 Z " fill="#D7B6A8" transform="translate(307,269)"/>
<path d="M0 0 C0.53109375 0.40992187 1.0621875 0.81984375 1.609375 1.2421875 C2.66898438 2.05042969 2.66898438 2.05042969 3.75 2.875 C4.44609375 3.40867187 5.1421875 3.94234375 5.859375 4.4921875 C9.35069084 6.95139902 12.44299037 8.23029407 16.625 9.0625 C18.98190335 9.53622974 20.84656316 9.92328158 23 11 C25.72741121 11.09922625 28.42866766 11.13980577 31.15625 11.1328125 C31.97315308 11.13376923 32.79005615 11.13472595 33.63171387 11.13571167 C35.36678138 11.13639327 37.10185143 11.13454038 38.83691406 11.13037109 C41.46164894 11.12507735 44.08620836 11.13028802 46.7109375 11.13671875 C54.87301109 11.13964129 62.89146156 11.05545025 71 10 C67.3358861 13.6641139 62.57139034 14.12447588 57.58105469 14.15112305 C55.94437765 14.11604663 54.30792403 14.06903947 52.671875 14.01171875 C51.80105286 13.98906448 50.93023071 13.96641022 50.03302002 13.94306946 C48.20415821 13.89337101 46.37543155 13.83845097 44.546875 13.77856445 C41.74500186 13.68733726 38.94305619 13.61284141 36.140625 13.54101562 C34.35934714 13.49055736 32.57809564 13.4391581 30.796875 13.38671875 C29.95936707 13.36373215 29.12185913 13.34074554 28.25897217 13.31706238 C24.95344651 13.20489426 22.15566336 13.05188779 19 12 C17.865625 11.855625 16.73125 11.71125 15.5625 11.5625 C12 11 12 11 9.9375 9.9375 C7.25826155 8.6410943 4.93179788 8.86673646 2 9 C1.67 9.66 1.34 10.32 1 11 C0.34 11 -0.32 11 -1 11 C-1.33 13.31 -1.66 15.62 -2 18 C-2.99 18 -3.98 18 -5 18 C-4.80664062 17.45472656 -4.61328125 16.90945312 -4.4140625 16.34765625 C-2.55239547 10.9561948 -1.12344334 5.59078274 0 0 Z " fill="#E7C2B1" transform="translate(209,117)"/>
<path d="M0 0 C1 3 1 3 -0.5625 6.3125 C-2.5302323 9.55789181 -4.88338408 12.00778766 -7.625 14.60546875 C-9.51248274 16.51976233 -10.68820143 18.66157646 -12 21 C-12.82376696 22.15273001 -13.65792521 23.29807536 -14.5 24.4375 C-16.70831072 27.47888603 -18.34776167 30.6204216 -20 34 C-20.7734375 35.0209375 -20.7734375 35.0209375 -21.5625 36.0625 C-23.19311973 38.26029181 -24.07398901 40.43566188 -25 43 C-25.66 43 -26.32 43 -27 43 C-27.12632813 43.54914063 -27.25265625 44.09828125 -27.3828125 44.6640625 C-29.16428985 51.40661603 -31.83009835 57.80428314 -35 64 C-35.69971973 65.98867713 -36.37664397 67.98608051 -37 70 C-37.66 70 -38.32 70 -39 70 C-37.55143768 62.59068697 -34.77957454 55.97097624 -31.5625 49.1875 C-31.17908447 48.37563232 -30.79566895 47.56376465 -30.40063477 46.72729492 C-28.2266056 42.23066019 -25.82865351 38.12830513 -23 34 C-22.1057444 32.32262462 -21.23033531 30.63505199 -20.375 28.9375 C-17.29215029 23.19325344 -13.50926224 18.26297194 -9.48046875 13.171875 C-6.1215249 8.92162391 -3.0505251 4.47477688 0 0 Z " fill="#FDF7EE" transform="translate(74,133)"/>
<path d="M0 0 C0.66 0.33 1.32 0.66 2 1 C-3.63236332 5.79684695 -9.22518238 10.53288237 -15.3125 14.75 C-22.15686286 19.63178619 -28.08562862 25.46049935 -34.15429688 31.25146484 C-36.9644269 33.91365416 -39.82400506 36.52047863 -42.6875 39.125 C-45.86612275 42.01785445 -48.98551404 44.93609624 -52 48 C-52.66 47.67 -53.32 47.34 -54 47 C-37.52931164 28.90226796 -20.21861387 13.80309216 0 0 Z " fill="#FEF7EE" transform="translate(129,85)"/>
<path d="M0 0 C2.03125 0.0859375 2.03125 0.0859375 4.5 0.375 C5.3146875 0.46523438 6.129375 0.55546875 6.96875 0.6484375 C9 1 9 1 10 2 C16.02994772 2.9798665 21.90149942 3.12339133 28 3.0625 C28.87011719 3.05798828 29.74023438 3.05347656 30.63671875 3.04882812 C32.75784293 3.0371736 34.8789311 3.01924357 37 3 C35.62890625 4.9765625 35.62890625 4.9765625 33 7 C29.63937993 7.56454156 26.33598337 7.46678562 22.9375 7.375 C21.57141602 7.37306641 21.57141602 7.37306641 20.17773438 7.37109375 C13.42222744 7.28148496 13.42222744 7.28148496 10 5 C7.69898075 4.40936404 5.39449232 3.99209054 3.05859375 3.5625 C1 3 1 3 -1 1 C-0.67 0.67 -0.34 0.34 0 0 Z " fill="#DAB6A5" transform="translate(238,322)"/>
<path d="M0 0 C0.33 0 0.66 0 1 0 C0.42953482 5.51449676 -0.24740675 11.00719255 -1 16.5 C-1.165 17.7065625 -1.33 18.913125 -1.5 20.15625 C-2 23 -2 23 -3 24 C-3.13346992 25.73248084 -3.20345253 27.46994006 -3.24609375 29.20703125 C-3.27896484 30.26857422 -3.31183594 31.33011719 -3.34570312 32.42382812 C-3.40658103 34.67112967 -3.46391074 36.91853032 -3.51757812 39.16601562 C-3.55173828 40.23142578 -3.58589844 41.29683594 -3.62109375 42.39453125 C-3.6461499 43.37268799 -3.67120605 44.35084473 -3.69702148 45.35864258 C-4.00278482 48.02427798 -4.6437355 49.70835728 -6 52 C-6.47021656 33.96779778 -5.37323385 17.30105084 0 0 Z " fill="#FDF5EA" transform="translate(33,208)"/>
<path d="M0 0 C0.66 0.33 1.32 0.66 2 1 C2 1.66 2 2.32 2 3 C3.175625 3.4640625 3.175625 3.4640625 4.375 3.9375 C7 5 7 5 9 6 C9 6.66 9 7.32 9 8 C9.99 8.33 10.98 8.66 12 9 C10.66719998 13.66480006 8.67626589 16.98560117 6 21 C5.33029384 22.4685123 4.68578144 23.94869008 4.0625 25.4375 C2.21435205 29.78175216 -0.13327509 33.25733136 -3 37 C-3 33.55741612 -2.00020223 32.52656747 -0.08203125 29.80859375 C1.56098304 27.06232798 2.40795185 24.14408609 3.34375 21.09765625 C4 19 4 19 5.125 16.375 C6.26021401 13.29370482 6.61751145 10.25115265 7 7 C6.01 7 5.02 7 4 7 C1.8125 5.1875 1.8125 5.1875 0 3 C0 2.01 0 1.02 0 0 Z " fill="#E1B29F" transform="translate(307,269)"/>
<path d="M0 0 C0.66 0.33 1.32 0.66 2 1 C-0.11288043 3.30973264 -2.04510206 4.67864688 -4.875 6 C-9.44673309 8.15140381 -13.6510721 10.76555228 -17.8828125 13.515625 C-18.57503906 13.96164063 -19.26726562 14.40765625 -19.98046875 14.8671875 C-21.42281013 15.79722183 -22.86026343 16.73487642 -24.29296875 17.6796875 C-24.98261719 18.12054688 -25.67226562 18.56140625 -26.3828125 19.015625 C-27.00559082 19.42071289 -27.62836914 19.82580078 -28.27001953 20.24316406 C-30 21 -30 21 -33 20 C-28.71170306 16.36222315 -24.1071879 13.4691552 -19.3125 10.5625 C-18.51392578 10.07749023 -17.71535156 9.59248047 -16.89257812 9.09277344 C-4.25970972 1.48329178 -4.25970972 1.48329178 0 0 Z " fill="#FEF7ED" transform="translate(164,65)"/>
<path d="M0 0 C-5.39017479 3.65140873 -11.35653475 5.25797467 -17.5625 7 C-23.99671605 8.87177194 -30.0021455 11.38865869 -36.01953125 14.328125 C-38 15 -38 15 -41 14 C-38.62112184 11.62112184 -36.64045611 10.93333794 -33.50390625 9.72265625 C-32.38693359 9.29146484 -31.26996094 8.86027344 -30.11914062 8.41601562 C-28.94544922 7.96935547 -27.77175781 7.52269531 -26.5625 7.0625 C-25.42361328 6.61970703 -24.28472656 6.17691406 -23.11132812 5.72070312 C-3.55043647 -1.77521823 -3.55043647 -1.77521823 0 0 Z " fill="#FEF7ED" transform="translate(209,50)"/>
<path d="M0 0 C6.75 0.875 6.75 0.875 9 2 C11.72741121 2.09922625 14.42866766 2.13980577 17.15625 2.1328125 C17.97315308 2.13376923 18.79005615 2.13472595 19.63171387 2.13571167 C21.36678138 2.13639327 23.10185143 2.13454038 24.83691406 2.13037109 C27.46164894 2.12507735 30.08620836 2.13028802 32.7109375 2.13671875 C40.87301109 2.13964129 48.89146156 2.05545025 57 1 C53.36913644 4.63086356 48.61109786 5.11580853 43.66040039 5.18286133 C42.05594744 5.16113231 40.45162765 5.12694416 38.84765625 5.08203125 C37.98869247 5.06412033 37.1297287 5.04620941 36.24473572 5.02775574 C34.43686986 4.98675814 32.629122 4.94022065 30.8215332 4.88842773 C28.07446059 4.81282915 25.32777194 4.76375129 22.58007812 4.71679688 C20.81506402 4.673481 19.05008725 4.62861034 17.28515625 4.58203125 C16.06760399 4.5630352 16.06760399 4.5630352 14.82545471 4.5436554 C9.30545053 4.35732358 5.08204243 3.17511561 0 1 C0 0.67 0 0.34 0 0 Z " fill="#A98F85" transform="translate(223,126)"/>
<path d="M0 0 C0.99 0 1.98 0 3 0 C3.66 1.32 4.32 2.64 5 4 C4.01 4.495 4.01 4.495 3 5 C2.97494385 5.57967529 2.9498877 6.15935059 2.92407227 6.7565918 C2.80753766 9.40042107 2.68507318 12.04394409 2.5625 14.6875 C2.50352539 16.05551758 2.50352539 16.05551758 2.44335938 17.45117188 C2.40146484 18.33740234 2.35957031 19.22363281 2.31640625 20.13671875 C2.27974854 20.94842529 2.24309082 21.76013184 2.20532227 22.59643555 C1.98962569 25.12144485 1.54100548 27.52600697 1 30 C0.67 30 0.34 30 0 30 C0 20.1 0 10.2 0 0 Z " fill="#E8B198" transform="translate(215,228)"/>
<path d="M0 0 C0.33 0 0.66 0 1 0 C1.12117188 0.99 1.24234375 1.98 1.3671875 3 C2.21942941 9.77592337 3.11931754 16.4176114 5 23 C4.01 23.33 3.02 23.66 2 24 C0.11525997 22.11525997 0.30668 18.97253598 -0.0625 16.4375 C-0.32740234 14.64119141 -0.32740234 14.64119141 -0.59765625 12.80859375 C-0.73042969 11.88175781 -0.86320312 10.95492187 -1 10 C-2.65 10 -4.3 10 -6 10 C-5.02526874 8.33073546 -4.04510211 6.66464358 -3.0625 5 C-2.24458984 3.6078125 -2.24458984 3.6078125 -1.41015625 2.1875 C-0.71212891 1.1046875 -0.71212891 1.1046875 0 0 Z " fill="#E4C0AF" transform="translate(307,107)"/>
<path d="M0 0 C0.66 0 1.32 0 2 0 C0.67692317 3.73226151 -0.95173219 6.48870109 -3.4375 9.5625 C-4.03433594 10.30628906 -4.63117188 11.05007813 -5.24609375 11.81640625 C-5.82488281 12.53699219 -6.40367187 13.25757813 -7 14 C-7.52722656 14.75152344 -8.05445313 15.50304687 -8.59765625 16.27734375 C-9.29181641 17.13005859 -9.29181641 17.13005859 -10 18 C-10.66 18 -11.32 18 -12 18 C-12.226875 18.53625 -12.45375 19.0725 -12.6875 19.625 C-14.43382056 22.78500863 -16.6402849 25.2676983 -19 28 C-19.8125 26.3125 -19.8125 26.3125 -20 24 C-17.78859254 21.34631105 -15.89029742 19.42041822 -12.75 17.9375 C-11.88375 17.4734375 -11.88375 17.4734375 -11 17 C-10.40929986 15.05396726 -10.40929986 15.05396726 -10 13 C-8.5625 11.25 -8.5625 11.25 -7 10 C-6.34 10 -5.68 10 -5 10 C-4.34 8.02 -3.68 6.04 -3 4 C-2.34 4 -1.68 4 -1 4 C-0.67 2.68 -0.34 1.36 0 0 Z " fill="#FDF6EC" transform="translate(459,350)"/>
<path d="M0 0 C6.57172094 1.26581052 12.29642663 3.1629418 18.375 5.9375 C19.16777344 6.28490234 19.96054687 6.63230469 20.77734375 6.99023438 C24.45382371 8.64185101 27.25173042 9.98609643 30 13 C27.86014542 12.28671514 25.7205364 11.5727941 23.58203125 10.85546875 C21.91689049 10.30378066 20.24780199 9.76380256 18.57421875 9.23828125 C14.32570066 7.88875198 10.78800864 6.39242651 7 4 C4.68971557 2.93483729 2.35326133 1.96898996 0 1 C0 0.67 0 0.34 0 0 Z " fill="#FEF8EE" transform="translate(359,49)"/>
<path d="M0 0 C0.66 0.33 1.32 0.66 2 1 C1.01 2.485 1.01 2.485 0 4 C-0.24270825 7.43307165 -0.24270825 7.43307165 -0.125 11.1875 C-0.09792969 13.09595703 -0.09792969 13.09595703 -0.0703125 15.04296875 C-0.04710937 16.01878906 -0.02390625 16.99460937 0 18 C-0.66 18.33 -1.32 18.66 -2 19 C-2 17.35 -2 15.7 -2 14 C-2.66 14 -3.32 14 -4 14 C-4.33 11.69 -4.66 9.38 -5 7 C-5.66 7 -6.32 7 -7 7 C-5.66667905 3.00003714 -3.5042173 2.16217663 0 0 Z " fill="#DFB2A0" transform="translate(206,273)"/>
<path d="M0 0 C-7.13393851 5.01900983 -13.33293302 7.13627168 -22 8 C-21.67 7.01 -21.34 6.02 -21 5 C-19.02 5 -17.04 5 -15 5 C-14.67 4.01 -14.34 3.02 -14 2 C-11.03 2.495 -11.03 2.495 -8 3 C-8 2.34 -8 1.68 -8 1 C-3.375 -1.125 -3.375 -1.125 0 0 Z " fill="#494040" transform="translate(299,119)"/>
<path d="M0 0 C5.05747648 5.59934896 8.05504322 12.75061564 10 20 C9.67 20.66 9.34 21.32 9 22 C8.34 21.67 7.68 21.34 7 21 C7.33 20.34 7.66 19.68 8 19 C7.34 19 6.68 19 6 19 C5.74605469 18.25234375 5.49210937 17.5046875 5.23046875 16.734375 C4.88628906 15.74953125 4.54210937 14.7646875 4.1875 13.75 C3.85105469 12.77546875 3.51460938 11.8009375 3.16796875 10.796875 C2.05649057 8.13527508 0.72144621 6.28191707 -1 4 C-0.6875 1.75 -0.6875 1.75 0 0 Z " fill="#E2BFAF" transform="translate(315,137)"/>
<path d="M0 0 C0.96099609 0.30744141 0.96099609 0.30744141 1.94140625 0.62109375 C7.91890734 2.48329478 7.91890734 2.48329478 14.0625 3.625 C17 4 17 4 18 5 C20.69235776 5.23678716 23.36498156 5.42198025 26.0625 5.5625 C27.20041992 5.62727539 27.20041992 5.62727539 28.36132812 5.69335938 C30.24065438 5.79973633 32.12030244 5.90039934 34 6 C34 6.33 34 6.66 34 7 C31.33326258 7.02727345 28.66681131 7.04696948 26 7.0625 C24.88431641 7.07506836 24.88431641 7.07506836 23.74609375 7.08789062 C18.73851156 7.10966272 13.95720968 6.71541549 9 6 C9 5.34 9 4.68 9 4 C6.36 3.67 3.72 3.34 1 3 C0.67 2.01 0.34 1.02 0 0 Z " fill="#E88F7C" transform="translate(232,241)"/>
<path d="M0 0 C2.0625 0.4375 2.0625 0.4375 4 1 C2.75264433 1.6509259 1.50198168 2.29551669 0.25 2.9375 C-0.44609375 3.29714844 -1.1421875 3.65679687 -1.859375 4.02734375 C-6.59287911 6.17815127 -11.12178851 6.12139289 -16.25 6.0625 C-16.99507813 6.05798828 -17.74015625 6.05347656 -18.5078125 6.04882812 C-20.3385764 6.03709246 -22.16929873 6.0191585 -24 6 C-20.61715215 3.7447681 -19.77688021 3.84572888 -15.875 4.0625 C-10.42201923 4.17852087 -5.97164293 3.23145834 -1 1 C-0.67 0.67 -0.34 0.34 0 0 Z " fill="#E6AD9A" transform="translate(280,320)"/>
<path d="M0 0 C0.66 0 1.32 0 2 0 C2 2 2 2 0.4609375 3.55078125 C-0.22742188 4.13214844 -0.91578125 4.71351563 -1.625 5.3125 C-2.71167969 6.23675781 -2.71167969 6.23675781 -3.8203125 7.1796875 C-4.53960937 7.78039062 -5.25890625 8.38109375 -6 9 C-6.61617188 9.51820313 -7.23234375 10.03640625 -7.8671875 10.5703125 C-9.23975123 11.71958835 -10.6190983 12.8607561 -12 14 C-12.66 13.67 -13.32 13.34 -14 13 C-12.41905209 10.58697424 -11.18798233 9.11177327 -8.6875 7.625 C-6.26076617 6.15767257 -4.75098198 4.83135806 -2.8125 2.8125 C-1.884375 1.884375 -0.95625 0.95625 0 0 Z " fill="#E3AE97" transform="translate(301,306)"/>
<path d="M0 0 C0.66 0 1.32 0 2 0 C0.26017005 5.81261371 -1.8110489 10.83169994 -5 16 C-5.33 16 -5.66 16 -6 16 C-6.3913152 11.54063718 -5.21759262 9.02208724 -3 5.1875 C-2.443125 4.21167969 -1.88625 3.23585938 -1.3125 2.23046875 C-0.879375 1.49441406 -0.44625 0.75835937 0 0 Z " fill="#FDF6F0" transform="translate(476,319)"/>
<path d="M0 0 C0 0.66 0 1.32 0 2 C-0.99 2 -1.98 2 -3 2 C-3 2.66 -3 3.32 -3 4 C-8.36439644 6.68219822 -12.01006953 7.3152595 -18 7 C-14.53462385 4.68974923 -11.3553358 3.87110385 -7.375 2.78125 C-4.62244379 1.87580388 -2.91640528 0 0 0 Z " fill="#E38B78" transform="translate(287,240)"/>
<path d="M0 0 C0.33 0 0.66 0 1 0 C1 9.9 1 19.8 1 30 C0.67 30 0.34 30 0 30 C-0.1679774 25.91671948 -0.33415521 21.83336765 -0.5 17.75 C-0.57154297 16.01169922 -0.57154297 16.01169922 -0.64453125 14.23828125 C-0.68964844 13.12324219 -0.73476563 12.00820312 -0.78125 10.859375 C-0.82314453 9.83295898 -0.86503906 8.80654297 -0.90820312 7.74902344 C-0.98329057 5.5003942 -1 3.24988257 -1 1 C-0.67 0.67 -0.34 0.34 0 0 Z " fill="#D28273" transform="translate(302,227)"/>
<path d="M0 0 C2.89243348 1.44621674 4.65906189 2.74165785 6.625 5.3125 C6.2265625 7.4453125 6.2265625 7.4453125 5.625 9.3125 C4.33256532 8.1883824 3.04107925 7.06317408 1.75 5.9375 C1.03070313 5.31101562 0.31140625 4.68453125 -0.4296875 4.0390625 C-1.7826598 2.83823166 -3.0958345 1.5916655 -4.375 0.3125 C-2.375 -0.6875 -2.375 -0.6875 0 0 Z " fill="#E7DCD5" transform="translate(307.375,59.6875)"/>
<path d="M0 0 C3.89608498 1.48904175 7.59097018 3.24378713 11.3125 5.125 C12.38113281 5.66382812 13.44976562 6.20265625 14.55078125 6.7578125 C15.76314453 7.37269531 15.76314453 7.37269531 17 8 C17 8.33 17 8.66 17 9 C10.02013687 8.68978386 4.92708478 5.5048042 -1 2 C-0.67 1.34 -0.34 0.68 0 0 Z " fill="#EAC8B9" transform="translate(211,120)"/>
<path d="M0 0 C0.33 0 0.66 0 1 0 C1 1.65 1 3.3 1 5 C2.65 5.33 4.3 5.66 6 6 C5.34 7.65 4.68 9.3 4 11 C3.01 11 2.02 11 1 11 C-1.125 3.375 -1.125 3.375 0 0 Z " fill="#504243" transform="translate(322,144)"/>
<path d="M0 0 C2.8125 0.25 2.8125 0.25 6 2 C7.48670663 5.9100929 8.28288204 9.88600747 9 14 C8.34 14 7.68 14 7 14 C4.67409146 10.36576791 4.83734167 7.22911669 5 3 C2.525 2.01 2.525 2.01 0 1 C0 0.67 0 0.34 0 0 Z " fill="#F9D7C1" transform="translate(192,186)"/>
<path d="M0 0 C0.33 0 0.66 0 1 0 C1 2.97 1 5.94 1 9 C-1.31 9.33 -3.62 9.66 -6 10 C-5.02526874 8.33073546 -4.04510211 6.66464358 -3.0625 5 C-2.24458984 3.6078125 -2.24458984 3.6078125 -1.41015625 2.1875 C-0.71212891 1.1046875 -0.71212891 1.1046875 0 0 Z " fill="#D6B9B3" transform="translate(307,107)"/>
<path d="M0 0 C0.33 0 0.66 0 1 0 C1.34568576 4.83960066 0.66280693 7.91068936 -2 12 C-4.109375 12.66796875 -4.109375 12.66796875 -6 13 C-5.73445312 12.48050781 -5.46890625 11.96101563 -5.1953125 11.42578125 C-3.29301903 7.66979306 -1.48040295 3.94774121 0 0 Z " fill="#E9B49D" transform="translate(214,260)"/>
<path d="M0 0 C-6.97200851 3.04702594 -12.52994747 3.15890535 -20 2 C-20 1.67 -20 1.34 -20 1 C-17.41765641 0.63667026 -14.83460218 0.28405133 -12.25 -0.0625 C-11.52039063 -0.16626953 -10.79078125 -0.27003906 -10.0390625 -0.37695312 C-6.3892704 -0.85806208 -3.52327086 -1.04532842 0 0 Z " fill="#CAAB9F" transform="translate(280,128)"/>
<path d="M0 0 C0.66 0.33 1.32 0.66 2 1 C0.9375 3.875 0.9375 3.875 -1 7 C-4.6875 8.375 -4.6875 8.375 -8 9 C-7.04270084 7.87411986 -6.08412105 6.7493285 -5.125 5.625 C-4.59132812 4.99851562 -4.05765625 4.37203125 -3.5078125 3.7265625 C-2.38567993 2.44163349 -1.20628025 1.20628025 0 0 Z " fill="#464445" transform="translate(210,63)"/>
<path d="M0 0 C3.36591866 1.44253657 5.51047079 3.33264727 8 6 C7.01 7.485 7.01 7.485 6 9 C4.99406757 7.8803014 3.9954151 6.7540588 3 5.625 C2.443125 4.99851563 1.88625 4.37203125 1.3125 3.7265625 C0 2 0 2 0 0 Z " fill="#DF8771" transform="translate(219,232)"/>
<path d="M0 0 C0.66 0 1.32 0 2 0 C2 0.66 2 1.32 2 2 C2.99 2.33 3.98 2.66 5 3 C5.66 2.01 6.32 1.02 7 0 C8.2077558 3.62326739 7.54311128 4.64146369 6 8 C5.34 8 4.68 8 4 8 C2.68 5.36 1.36 2.72 0 0 Z " fill="#4E3F3D" transform="translate(188,147)"/>
<path d="M0 0 C1 3 1 3 -0.1875 6.5 C-1.88906681 9.78578418 -2.87850793 11.17015982 -6 13 C-4.58707905 8.1725201 -2.57025846 4.2837641 0 0 Z " fill="#DBB9AD" transform="translate(203,135)"/>
<path d="M0 0 C5.94 0.99 5.94 0.99 12 2 C12 2.66 12 3.32 12 4 C12.66 4.33 13.32 4.66 14 5 C8.67061191 4.66328485 4.37173367 4.384568 0 1 C0 0.67 0 0.34 0 0 Z " fill="#554747" transform="translate(216,122)"/>
<path d="M0 0 C4.01422236 0.61757267 6.82909453 2.53374019 10 5 C10.875 7.25 10.875 7.25 11 9 C10.34 9 9.68 9 9 9 C9 8.34 9 7.68 9 7 C8.34 7 7.68 7 7 7 C5.625 5.75 5.625 5.75 4 4 C3.278125 3.278125 2.55625 2.55625 1.8125 1.8125 C1.214375 1.214375 0.61625 0.61625 0 0 Z " fill="#E2AF9C" transform="translate(217,310)"/>
<path d="M0 0 C-1.44950455 3.7910119 -3.15172566 7.3874638 -5 11 C-6.46534385 7.19010598 -5.55203911 4.6758821 -4 1 C-2 0 -2 0 0 0 Z " fill="#4D3C3E" transform="translate(202,137)"/>
<path d="M0 0 C2.96404505 2.80804268 5.44499019 5.18315774 7 9 C6.01 9.495 6.01 9.495 5 10 C5 9.01 5 8.02 5 7 C2.525 6.01 2.525 6.01 0 5 C0 3.35 0 1.7 0 0 Z " fill="#4D484D" transform="translate(316,71)"/>
<path d="M0 0 C0.66 0.66 1.32 1.32 2 2 C1.625 4.125 1.625 4.125 1 6 C-1.97 5.505 -1.97 5.505 -5 5 C-4 2 -4 2 -1.9375 0.8125 C-1.298125 0.544375 -0.65875 0.27625 0 0 Z " fill="#EDCDB9" transform="translate(187,146)"/>
<path d="M0 0 C0.66 0.33 1.32 0.66 2 1 C1.67 1.33 1.34 1.66 1 2 C0.76712992 3.68183948 0.58735834 5.3712416 0.4375 7.0625 C0.31181641 8.44115234 0.31181641 8.44115234 0.18359375 9.84765625 C0.12300781 10.55792969 0.06242188 11.26820313 0 12 C-0.33 12 -0.66 12 -1 12 C-1.33 9.69 -1.66 7.38 -2 5 C-2.66 5 -3.32 5 -4 5 C-3 2 -3 2 0 0 Z " fill="#D9BCAF" transform="translate(203,275)"/>
<path d="M0 0 C0.33 0.99 0.66 1.98 1 3 C0.195625 3.45375 -0.60875 3.9075 -1.4375 4.375 C-4.08856572 5.74725665 -4.08856572 5.74725665 -5 8 C-6.32 7.67 -7.64 7.34 -9 7 C-6.03 4.69 -3.06 2.38 0 0 Z " fill="#DE8372" transform="translate(297,232)"/>
<path d="M0 0 C0.99 0.33 1.98 0.66 3 1 C3 1.99 3 2.98 3 4 C1.02 4.99 -0.96 5.98 -3 7 C-2.38722388 4.03824877 -1.74627478 2.61941217 0 0 Z " fill="#EEE2D8" transform="translate(224,50)"/>
<path d="M0 0 C0.99 0.495 0.99 0.495 2 1 C2 1.66 2 2.32 2 3 C2.66 3 3.32 3 4 3 C4.33 2.01 4.66 1.02 5 0 C5 1.65 5 3.3 5 5 C4.01 5.33 3.02 5.66 2 6 C1.34 5.67 0.68 5.34 0 5 C0 3.35 0 1.7 0 0 Z " fill="#D0AB9A" transform="translate(190,152)"/>
<path d="M0 0 C0.33 0.66 0.66 1.32 1 2 C-1.45614035 7 -1.45614035 7 -3 9 C-3.99 9.33 -4.98 9.66 -6 10 C-6 9.34 -6 8.68 -6 8 C-5.34 8 -4.68 8 -4 8 C-3.67 6.68 -3.34 5.36 -3 4 C-2.34 4 -1.68 4 -1 4 C-0.67 2.68 -0.34 1.36 0 0 Z " fill="#FDDDC6" transform="translate(212,263)"/>
<path d="M0 0 C2.95183101 2.95183101 3.08663988 5.95511947 4 10 C3.01 9.67 2.02 9.34 1 9 C0.67 6.03 0.34 3.06 0 0 Z " fill="#FEF6EF" transform="translate(476,150)"/>
<path d="M0 0 C2.6875 0.3125 2.6875 0.3125 5 1 C4.01 2.485 4.01 2.485 3 4 C0.03 3.505 0.03 3.505 -3 3 C-1.8125 1.4375 -1.8125 1.4375 0 0 Z " fill="#E2B8A8" transform="translate(292,122)"/>
<path d="M0 0 C2.64 0 5.28 0 8 0 C7.67 0.66 7.34 1.32 7 2 C4.35139573 2.59355614 1.70802678 2.74209269 -1 3 C-0.67 2.01 -0.34 1.02 0 0 Z " fill="#423839" transform="translate(278,124)"/>
<path d="M0 0 C0.66 0.99 1.32 1.98 2 3 C0.02 5.31 -1.96 7.62 -4 10 C-4.33 9.01 -4.66 8.02 -5 7 C-4.01 6.67 -3.02 6.34 -2 6 C-0.77479736 2.99152582 -0.77479736 2.99152582 0 0 Z " fill="#4D3F40" transform="translate(304,108)"/>
<path d="M0 0 C0 3.28176588 -0.47835901 5.10888212 -2 8 C-4.125 8.8125 -4.125 8.8125 -6 9 C-4.47291037 5.56404834 -2.40072955 2.88087546 0 0 Z " fill="#585154" transform="translate(199,74)"/>
<path d="M0 0 C0.66 0 1.32 0 2 0 C1.01 2.97 0.02 5.94 -1 9 C-1.66 8.34 -2.32 7.68 -3 7 C-2.01 4.69 -1.02 2.38 0 0 Z " fill="#FEF7ED" transform="translate(481,307)"/>
<path d="" fill="#FFFFFF" transform="translate(0,0)"/>
<path d="" fill="#FFFFFF" transform="translate(0,0)"/>
<path d="" fill="#FFFFFF" transform="translate(0,0)"/>
<path d="" fill="#FFFFFF" transform="translate(0,0)"/>
<path d="" fill="#FFFFFF" transform="translate(0,0)"/>
<path d="" fill="#FFFFFF" transform="translate(0,0)"/>
<path d="" fill="#FFFFFF" transform="translate(0,0)"/>
<path d="" fill="#FFFFFF" transform="translate(0,0)"/>
<path d="" fill="#FFFFFF" transform="translate(0,0)"/>
<path d="" fill="#FFFFFF" transform="translate(0,0)"/>
<path d="" fill="#FFFFFF" transform="translate(0,0)"/>
<path d="" fill="#FFFFFF" transform="translate(0,0)"/>
<path d="" fill="#FFFFFF" transform="translate(0,0)"/>
<path d="" fill="#FFFFFF" transform="translate(0,0)"/>
<path d="" fill="#FFFFFF" transform="translate(0,0)"/>
<path d="" fill="#FFFFFF" transform="translate(0,0)"/>
<path d="" fill="#FFFFFF" transform="translate(0,0)"/>
<path d="" fill="#FFFFFF" transform="translate(0,0)"/>
<path d="" fill="#FFFFFF" transform="translate(0,0)"/>
<path d="" fill="#FFFFFF" transform="translate(0,0)"/>
<path d="" fill="#FFFFFF" transform="translate(0,0)"/>
<path d="" fill="#FFFFFF" transform="translate(0,0)"/>
<path d="" fill="#FFFFFF" transform="translate(0,0)"/>
<path d="" fill="#FFFFFF" transform="translate(0,0)"/>
<path d="" fill="#FFFFFF" transform="translate(0,0)"/>
<path d="" fill="#FFFFFF" transform="translate(0,0)"/>
<path d="" fill="#FFFFFF" transform="translate(0,0)"/>
<path d="" fill="#FFFFFF" transform="translate(0,0)"/>
<path d="" fill="#FFFFFF" transform="translate(0,0)"/>
<path d="" fill="#FFFFFF" transform="translate(0,0)"/>
<path d="" fill="#FFFFFF" transform="translate(0,0)"/>
<path d="" fill="#FFFFFF" transform="translate(0,0)"/>
</svg>
